<mxfile host="app.diagrams.net" agent="Mozilla/5.0 (Macintosh; Intel Mac OS X 10_15_7) AppleWebKit/537.36 (KHTML, like Gecko) Chrome/133.0.0.0 Safari/537.36" version="26.0.12">
  <diagram name="PÃ¡gina-1" id="t-Ow2Kjpo_K1SK52EZRH">
    <mxGraphModel dx="954" dy="639" grid="1" gridSize="10" guides="1" tooltips="1" connect="1" arrows="1" fold="1" page="1" pageScale="1" pageWidth="827" pageHeight="1169" math="0" shadow="0">
      <root>
        <mxCell id="0" />
        <mxCell id="1" parent="0" />
        <mxCell id="adFmGDFWW-hnQLzivERC-11" style="edgeStyle=orthogonalEdgeStyle;rounded=0;orthogonalLoop=1;jettySize=auto;html=1;entryX=0;entryY=0.5;entryDx=0;entryDy=0;" edge="1" parent="1" source="adFmGDFWW-hnQLzivERC-1" target="adFmGDFWW-hnQLzivERC-2">
          <mxGeometry relative="1" as="geometry" />
        </mxCell>
        <mxCell id="adFmGDFWW-hnQLzivERC-1" value="" style="shape=image;verticalLabelPosition=bottom;labelBackgroundColor=default;verticalAlign=top;aspect=fixed;imageAspect=0;image=data:image/jpeg,/9j/4AAQSkZJRgABAQAAAQABAAD/2wCEAAkGBxANDg0NEA0QDQ8OEBAODQ0NDxAPDQ0NFREXFxURFRgYHSggGBolHRcTITEhJSorLi46FyAzODMtNygvLi4BCgoKDg0OGhAQGy0mHSYtMi0wKzcwLjArLS0tLSsrLS0tLS0uLS8tLS0yLS0tLS0tLTYrLS0uLS0tLS0tLS0vLf/AABEIAOsA1gMBEQACEQEDEQH/xAAcAAEAAgMBAQEAAAAAAAAAAAAAAQIEBQYHAwj/xABOEAACAQIBBQkKCQoFBQAAAAAAAQIDEQQFBhIhMRNBUVJUcYGRsQcUIjJhcqGiwdEXM1Nzo6Sys9IVFiQ0YmOCkuHiI4Pj8PElNUKUwv/EABoBAQEAAwEBAAAAAAAAAAAAAAABAgQFAwb/xAA4EQEAAQICBQkHBAIDAQAAAAAAAQIDBBEFEiExURMUMkFhcYGhsVJikcHR4fAVMzSiIlMjY/Ek/9oADAMBAAIRAxEAPwD3EAAAAAAADR5Zzpw2Dbg5OrVW2lSs3F/tPZHm2+Q97eHrr29TwuYiijZ1uUxufuJndUqVOiuF3qT69S9Bt04OiN85tSrGVzujJpsRnLjanjYuovm7U/sJHrFi3HU8pv3J62BVyhXn42IrS86rOXaz0iimOqHnr1T1yxpzb2tvnbZUUU2tja5nYD6wx9aPi16sfNqzj2Mxmmmeplr1cZZdDOTG0/Fxlb+Oe6fbuYTZtz1M4vXI3TLcZP7oWLptKrGniY791uVTrjq9U8qsJRO7Y9acXXG/a7nIGc2Gx6tTk4VUryoVLKolvtb0l5V02NK5Zqt79zdt3qbm7e3R5PUAAAAAAAAAAAAAAAAAOZz4y5LCUo0qUtGrXv4S206a2yXA3dJdPAbWGtRXOc7oauKuzRTlG+XmTZ03MZuCyNicRHTpYepUjx0rRfM3ZPoPOq7RTsmXpTarqjOIYeLw1SjJ06tOVKa16M4uLtwq+1eUypqiqM4Y1UzTOUw+DZkxVbIqrYFWwKsKqwJpVZU5RnCThODUozi7SjJbGmSYz2SROW2HruZGcv5QouFSyxFGyqpalUi9lRLtW8+dHLv2eTnZudSxe5SNu90p4PcAAAAAAAAAAAAAAAAeX5/19PHzj8nTpwXStL/6OphIytuXi5zuNdmzgI4rGUKM9cG3KouGMYuWj02S6T0vV6lEzDzs0a9cRL2CEVFKKSSSSSSsklsSOO7DS54ZMhicHWulp0YSq0pb8ZRV2uZpWf8AQ9sPXNNcdrxv0RXRLx9s6zkqtgVbAq2FVYFWyCrYG5zNx7w2UMLNOyqTVCa3nCo9HXzPRf8ACeV+nWty9bNWrciXtxyXWAAAAAAAAAAAAAAAAHk2e7/6liv8r7mB1sN+1H51uTif3Z/Opr8iZReExNHEW0lTl4UVtlBpqSXls36DO5Rr0zSwt16lUVPYMn4+liYKpRqRqRfFeuL4GtqfkZyKqKqZymHXprpqjOHPZ75w0qGHq4aE1OvWi6bjF33KElaUpcDtey26zYw9maqoqndDXxF6KaZpjfLyxs6TmqtgVbCqsCGwKtkFWwr75Mf6Thvn6P3iMa+jPctHSjvfoE4zsgAAAAAAAAAAAAAAADyXPj/uWK/yvuIHWw37UfnW5OJ/dn86mhbPd4K3IqgFWwKthUMCrYFWyCrYVVsD75Mf6Thvn6P3iMa+jPctHSjvfoM4zsgAAAAAAAAAAAAAAADkcu5lPGYmrie+tz3TQ8DcdLR0YRjt0lfZfpNu1itSmKcmpdwuvVNWbX/Bw+W/V/7z0577vn9nnzL3vL7o+Dd8u+r/AN5Oe+75/ZeZe95fdHwbPl31f+8c993z+xzL3vL7o+DV8u+r/wB4577vn9jmXveX3R8Gb5d9X/1Bz33fP7HM/e8vu4PG0Nyq1qV9LcqlSnpWtpaMnG9t7YblM5xEtOqMpmGO2VFWwKthVWwMjJb/AEnDfP0fvEY19Ge5lR0o736EOM7AAAAAAAAAAAVqTUU5SkoxirylJpRilvtvYIjPcTOW9yOVs+6VNuGHpuu1q3STcKV/Jvy9BuW8HVO2qcmncxlMbKYzc7iM9cdN6qkKXkp0otevc2IwtuOprTirkvg88Mfyr6Kh+Ey5ta4eqc5u8fRV545Q5V9FQ/AObWuHqc5u8fRDzyyhyr6Kh+Ac2tcPU5zd4+irzzyhyr6Gh+AnNrXD1XnN3j6IeeeUOVfQ0PwDm1rh6nObvH0VeemUeV/Q0PwDm1rh6nOLvH0Q89co8r+hofgHNrXD1OcXePor+euUeV/Q0PwDm1rh6nOLvH0aGvWlUnOpJ3lOUpzdkryk7t6vK2e0RlGUPKZznN8mwirYVRsCrYGRkv8AWcN8/R+8RjX0Z7mVPSjve/4yo4xunZ3SPmcfdrtWtaicpzdy1TFVWUsLvqfG9C9xxuf4j2vKPo2eSo4HfU+N6F7hz/Ee15R9DkqOC0cbNbbS51bsPSjSd6npZT+djGbFM7mZQxCns1PfTOvhsZRfjZsng8K7c0vsbbzAAACJNJNt2S1tvUkgPLs7M45Y2bpwbjhoPwY7N1a/85exe06tixFuM53uVfvzcnKNznWbDXQ2BVsCjYFWyKq2BVsCrCoYFWyCrYFWwqrYFWwKtkGTkr9Zw3z9H7xEr6M9zKnpR3vfcf4nSj5XSf7HjDvWOk1x8820XAgxVMZuLTTs1sMqLlVFUVU74JpiYylt6FVTipcO1cDPq8Pfi9biuPyXPrp1ZyfQ92IAA5fugZSdHCqjF2niW4Ph3JeP13iv4mbWEo1q856mri7mrRlHW80Z03MVbAq2BVsCrZFVbAq2BVsKqwKtkFWwKthVWwKtgVbIIAyslfrOG+fo/eIlfRnuZU9KO977lDxOlHyulP2PGHesdJrbnzrbRciobIqLkGZkuprlDh1rn/32HX0Reyrqtz17fz86mviKdkS2R32oAAPM+6JitPGqnfVRpRjbgnK8n6HHqOnhKcrefFzMXVncy4OWbNpqqtgVbAq2RVWwKtgVbCqsCGyCjYFWwqrYFWwKtgQQANtmng3iMoYKmvloVJeZTenL0RZ53atWiZelqnWriHt2UpeDFcLv1L+p8npavK3TTxn0/wDXdw8bZlr7nBbatzFUXIqLkH0ws9GpB+VLoeo2MHc1L9FXb67GNynOiYbw+wc0AAeN5x190xuLn++nFc0Hor0RR2bMZW4jsca9Odyqe1rGz0earYFWyKq2BVsCrYVVgQ2BVsgq2FVbAq2BVsCpAAAeqdzHNyWHhLHVouNStHRowkrShQbTcnwOVl0JcJoYq7nOrDfw1rKNaXTYytpydti1L3nxePxHLXZmN0bIdm1Rq0se5pPVDZM1VuYqi5MxFyZq6GnK6T4UmfcW6teiKuMZuVMZTksZoAeGYmppTnLjSlLrbZ3IjKMnDmc5mXybKirZFVbAo2BVsKhgVbAzMJkfFV0nSwtapF7JxpS0H/Fax51XKad8s6bdVW6GS81Mociq+r7zHl7fFnyFzgh5qZQ5FV9X3jl7fE5C5wVeaeUORVfV945e3xOQucFXmllDkNX1feOXt8TkLnBH5o5R5DV9T3k5e3xOQucD80co8hq+p7xy9vicjc4Pvhcx8o1Wl3rua49WpTjFc9m31Ik4i3HWsYe5PU7fNnue0sLKNbEzWJqx8KNNK2Hpy4bPXN89l5N81buKmqMqdkNq1hYpnOrbLp8bi73hF88vYj5nH6QiYm3anvn5R9XUtWeupgXOI2kXIIIqLkzVBFRcxG9wTvSp+al1H2WBnPDUd0OZejKuX3Nt5gHhFRWbXA2uo7kOHKjZUVbIqrYFWwqrAzcj5JrY6sqNGN3tlJ6oU48aT3l2mFy5FEZyzotzXOUPUchZn4XApTlFV6y1utWStF/sReqPb5Tl38VMxMzOUOlaw1NPbLdzxsVsvLm1I5FelLNOynOfztbkWKpU7/XFfWjz/VqfZllyE8Tv9cV9aH6tT7MnITxO/wBcV9aH6tT7MnITxO/1xX1ofq1HsychPE7/AFxX1on6tR7MnN54o/KC4r60P1ej2ZObzxVllHgh1s86tMezR5rGH4yxq2JlPU3ZcC1I51/G3r2yqdnCNz3otU07nwuaj0Rciq3IIMVCKrcgi5Fb3J/xUOZ9rPsNG/xaO75uZf8A3JZJvPIA8RyzS3PFYqHFr1UubTdvRY7Vuc6InscW5GVcx2sFsyYqtgVbAqwqaVOVSUacIuU5yUIRW2U27JdZJnKM5IjOcoe05u5Hp5Nwypqzm7Sr1FtqVPctiX9Ti4rExETcq3Q7FizqxFMb1q1Zzd3s3lvI+UxGJrv1Z1buqODo0URTGx8zXZgAABFyCLkVDZFRcgq2Y5qgiouTNUEEXJmqGzFUNkVVsmY6LBxtTpr9ldh9tgqdXD0R2Q5V2c65732Np5gHkmfuG3LKFZ71WMKsemOi/TGR1cNVnbhysTTlclzjZ7vBVsCrYVDA6nubYFVsfujV1h6cqi4N0fgx9Dk+g1sVVlRlxbOFpzrz4PTMoT1qPBrfOfI6Vu51RbjvduxTszYZyGwAAAEEVVsgi5iqLkVFyCLkVBFQYqi5BVsiouRUXIqacdKUY8ZpdbMrdE3K4ojrnL4pVOrEy6ZK2o+9iMoyhxklADge6lgtWGxSWxyozfP4UOyfWb2Dq30tHGU7qnnzZvNFVsKqwKtkHe9yVf4mOf7FDtqGnjN1Pj8m5g99Xh83a4z4yXR2I+L0hP8A9FXh6Q7lroQ+BpPQAi5BFyKi5FRcghsmaq3MVRcggioIqLkVFyCGzFVWyKgis7I9LSqaW9BX6XqXtOtoaxr39ed1Mec7I+bWxVeVGXFvD6xzQABg5bybHGYath5at0j4MuJUWuMuhpGduvUqiphcoiumaXiOKoTo1J0qkdCdOTjOL3pI7ETExnDkTExOUvgyohsCrZB33cj8fH+bh+2oaWM3U+PybuD31eHzdpjPjJdHYj4vSH8irw9Idu10IfE03oi5FRcgq2RUNmKouQQRUXJmqCKi5iIuRVWyKi5BFyKgioIOhydh9zppPxpeFLyPgPs9G4Xm9iInpTtn6eDlX7mvXs3Mo6DxAAADmM8M0449brTap4mKspPxK0VsjO2x8Eu3e2LF+beydzXv2IubY3vLMp5OrYSWhXozpO9k5LwJebJapdDOjTXTXtplzqqKqJyqhhtmTFVsDv8AuRfGY/zcP21DSxm6nx+Tdwe+rw+btcb8ZLo7EfF6Q/kVeHpDt2uhDHNF6obIqLkEXJmqLkVW5MxFzHNS5M1VuTMRcmaobMc1Q2TNUXJmIIold2Su95LWxETVOUbZJ2Nrk7JzTU6itbXGHl4WfRaN0VVFUXb0bt0fOfo0r+IiY1afi2p9C0QAAAAAKzgpJppST2pq6YGFLImEbu8Hhm+F0KTfYZ8pXxlhydHCFfyDg+Q4b/16XuHK18Z+JyVHCPgyMJk+hQ0nRoUqOlbS3KnCnpWva+ite19ZJqqq3ysU007oYeN+Ml0fZR8tpD+TV4ekOhZ6EMds0Xqi5BW5jmqCKhsittSdHRjfc72V76N72PprNWC5OnW1M8o9lo1RdznLPzW0qH7r1D01sB7n9WOV7t8zSocNL1Ca2A9z+ple7fM0qHDS9Qa2j/8Ar/quV7t80aWH4aPqDX0fxt/1Mr3b5pTofufUEVaPmco5P+ple7fN9e9qfycP5YmzzSx7FPwh58pXxk72p/Jw/liOaYf/AF0/CDla+M/E72p/Jw/liOaYf/XT8IOVr4z8V4U1HZFLmSR60W6KOjEQxmqZ3ysZoAAAAAAAAAAADUY74yXR9lHy2kf5NXh6Q37PQhjtmi9UXIIIqCKgxVFyZityKi5FRciouYi1HxoedHtPSz+7T3x6pV0ZdOffOMAAAAAAAAAAAAAAAANPj/jZ9H2UfK6S/k1+HpDfs9CGNc0Hsi5MxBFQRUNkVDZBDZirIwWEdZvXaK2y9iN7A4GrFVTtypjfPyh5Xb0W47WfLJMLapST4XZ+w7FWg7M05U1Tn4fRqxi6s9sQ1OIounJwltXU1wnzuJw9di5Nuvf69reoriunOFaPjw86PaYWP3ae+PVa+jLqD79xgAAAAAAAAAAAAAAABqMpRtUb4Un6Lew+X0rRq4iZ4xE/L5N/DznQxLnNze6CKi5jmIuRVWyKi5BFyK3eR2ty1bdJ35/+LH1mhppnDbN+c5/ndk52Kz5RnHVazT5ca0ocOi7819XtPmdOzHKUR15T9vm38HnqywcLHSqU1wyXVfWcnCUTXfopjjHq2bk5UTPY6Y+8ccAAAAAAAAAAAAAAAAYuPw+6RuvGjs8q30c7SOEm/bzp6Ubu3se1i5qTt3NMz5WdmyXRVuYiLkVDZFQ2Yqi5BBFffCYuVJ3WtPbF7GbmDxtzC1Z07YnfDyu2ouRtZ8ssK2qm7+V6jr1aep1f8aNvfsa0YOc9stXWqucnKTu3/uxwL16u9XNdc7ZblNMUxlDZ5HwjX+LJb1oLycY72hsFMf8APXHd9fo08Vdz/wAI8W1PoWkAAAAAAAAAAAAAAAAAGLi8FGprXgy4VsfOc7GaOt4j/KNlXHj3ve1fmjZ1NVXwk4bY3XGjrR87iMDfs9KnZxjbH53t2i7RVuljXNLN6obIqCKggAAPrRw86nixb8u91nvYwt69P/HTM9vV8dzCu5TR0pbTCZLUbSnaT4q8Ve8+gwehqbcxXe2zw6vv6NK7ipnZTsbI7jUAAAAAAAAAAAAAAAAAAAAAfGrhac/Ggn5dj60a13B2LvTojv6/jG16U3a6d0saeSab2OUelNek0K9CYerozMfna9oxdcb8nxeRuCp1xv7TXnQMdVzy+7PnnYLI37z1f6kjQMddzy+5zz3fN9IZIgtspPqSPejQdiOlVM/D6MZxdfVEMmngaUdkFzy8LtN21o7DW+jRHjt9XjVfuVb5ZBuvIAAAAAAAAAAAAAAAAAAAAAAAAAAAAAAAAAAAAAAAAAAAAAAAAAAAAFwI0gI0wI0wG6AN0AboBOmBOkAuBIAAAAAAAAAAAAAAAAAAo2BVsCjYFWwI0gI0gGkA0gLKQEpgXTAsmBdMCQAAAAAAAAAAAAAAAEOIFHACrgBVwAjQAjQAaADQAlQAsoAWUALqIFgAAAAAAAAAAAAAAAAAAAALARYCLALATYBYCQAAAAAAAAAAAAAf/9k=;" vertex="1" parent="1">
          <mxGeometry x="35" y="115" width="81.96" height="90" as="geometry" />
        </mxCell>
        <mxCell id="adFmGDFWW-hnQLzivERC-12" style="edgeStyle=orthogonalEdgeStyle;rounded=0;orthogonalLoop=1;jettySize=auto;html=1;" edge="1" parent="1" source="adFmGDFWW-hnQLzivERC-2" target="adFmGDFWW-hnQLzivERC-4">
          <mxGeometry relative="1" as="geometry" />
        </mxCell>
        <mxCell id="adFmGDFWW-hnQLzivERC-2" value="" style="strokeColor=#dddddd;shadow=1;strokeWidth=1;rounded=1;absoluteArcSize=1;arcSize=2;" vertex="1" parent="1">
          <mxGeometry x="314" y="130" width="120" height="60" as="geometry" />
        </mxCell>
        <mxCell id="adFmGDFWW-hnQLzivERC-3" value="Cloud&#xa;Storage" style="editableCssRules=.*;html=1;fontColor=#999999;shape=image;verticalLabelPosition=middle;verticalAlign=middle;labelPosition=right;align=left;spacingLeft=20;part=1;points=[];imageAspect=0;image=data:image/svg+xml,PHN2ZyB4bWxucz0iaHR0cDovL3d3dy53My5vcmcvMjAwMC9zdmciIHhtbG5zOnY9Imh0dHBzOi8vdmVjdGEuaW8vbmFubyIgd2lkdGg9IjIwIiBoZWlnaHQ9IjE2IiB2aWV3Qm94PSIwIDAgMjAgMTYiPiYjeGE7CTxzdHlsZSB0eXBlPSJ0ZXh0L2NzcyI+JiN4YTsJLnN0MHtmaWxsOiM0Mjg1ZjQ7fSYjeGE7CS5zdDF7ZmlsbDojNjY5ZGY2O30mI3hhOwkuc3Qye2ZpbGw6I2FlY2JmYTt9JiN4YTsJLnN0M3tmaWxsOiNmZmY7fSYjeGE7CTwvc3R5bGU+JiN4YTsJPHBhdGggY2xhc3M9InN0MiIgZD0iTTAgMGgyMHY3SDB6Ii8+JiN4YTsJPHBhdGggY2xhc3M9InN0MSIgZD0iTTE4IDBoMnY3aC0yeiIvPiYjeGE7CTxwYXRoIGNsYXNzPSJzdDAiIGQ9Ik0xOCA3bDItN2gtMnoiLz4mI3hhOwk8cGF0aCBjbGFzcz0ic3QxIiBkPSJNMCAwaDJ2N0gweiIvPiYjeGE7CTxnIGNsYXNzPSJzdDMiPiYjeGE7CQk8cGF0aCBkPSJNNCAzaDZ2MUg0eiIvPiYjeGE7CQk8cmVjdCB4PSIxMyIgeT0iMiIgd2lkdGg9IjMiIGhlaWdodD0iMyIgcng9IjEuNSIvPiYjeGE7CTwvZz4mI3hhOwk8cGF0aCBjbGFzcz0ic3QyIiBkPSJNMCA5aDIwdjdIMHoiLz4mI3hhOwk8cGF0aCBjbGFzcz0ic3QxIiBkPSJNMTggOWgydjdoLTJ6Ii8+JiN4YTsJPHBhdGggY2xhc3M9InN0MCIgZD0iTTE4IDE2bDItN2gtMnoiLz4mI3hhOwk8cGF0aCBjbGFzcz0ic3QxIiBkPSJNMCA5aDJ2N0gweiIvPiYjeGE7CTxnIGNsYXNzPSJzdDMiPiYjeGE7CQk8cGF0aCBkPSJNNCAxMmg2djFINHoiLz4mI3hhOwkJPHJlY3QgeD0iMTMiIHk9IjExIiB3aWR0aD0iMyIgaGVpZ2h0PSIzIiByeD0iMS41Ii8+JiN4YTsJPC9nPiYjeGE7PC9zdmc+;" vertex="1" parent="adFmGDFWW-hnQLzivERC-2">
          <mxGeometry width="30" height="24" relative="1" as="geometry">
            <mxPoint x="15" y="18" as="offset" />
          </mxGeometry>
        </mxCell>
        <mxCell id="adFmGDFWW-hnQLzivERC-4" value="" style="strokeColor=#dddddd;shadow=1;strokeWidth=1;rounded=1;absoluteArcSize=1;arcSize=2;" vertex="1" parent="1">
          <mxGeometry x="605" y="130" width="140" height="60" as="geometry" />
        </mxCell>
        <mxCell id="adFmGDFWW-hnQLzivERC-5" value="Cloud&#xa;Data Fusion" style="editableCssRules=.*;html=1;fontColor=#999999;shape=image;verticalLabelPosition=middle;verticalAlign=middle;labelPosition=right;align=left;spacingLeft=20;part=1;points=[];imageAspect=0;image=data:image/svg+xml,PHN2ZyB4bWxucz0iaHR0cDovL3d3dy53My5vcmcvMjAwMC9zdmciIHhtbG5zOnY9Imh0dHBzOi8vdmVjdGEuaW8vbmFubyIgd2lkdGg9IjM3Ny4wNDk2OTgzMjc3ODkyNiIgaGVpZ2h0PSIzNzcuMjkxNTcwNzE1Nzg5NzYiIHZpZXdCb3g9IjAuMTMxMDAwNTE4Nzk4ODI4MTIgLTAuMTIxMDAwMDA2Nzk0OTI5NSA5OS43NjEwMDE1ODY5MTQwNiA5OS44MjQ5OTY5NDgyNDIxOSI+JiN4YTs8c3R5bGUgdHlwZT0idGV4dC9jc3MiPiYjeGE7CS5zdDB7ZmlsbDojNjY5ZGY2O30mI3hhOwkuc3Qxe2ZpbGw6IzQyODVmNDt9JiN4YTsJLnN0MntmaWxsOiNhZWNiZmE7fSYjeGE7PC9zdHlsZT4mI3hhOwk8cGF0aCBjbGFzcz0ic3QwIiBkPSJNODAuNTkzIDE5LjE4djIwLjE5OWgxOS4yOTlWOS41M2MwLTIuNTM3LS45NzktNC44NDYtMi41OC02LjU2OHptLTkuOTA4IDYxLjIyNUgxOS40MzFMMy40NSA5Ny4zMzdjMS42OTUgMS40NzQgMy45MDggMi4zNjcgNi4zMzEgMi4zNjdoNzAuNTU1YzIuODczIDAgNS40NTMtMS4yNTYgNy4yMjEtMy4yNDh6Ii8+JiN4YTsJPHBhdGggY2xhc3M9InN0MSIgZD0iTTg3LjU3MyA5Ni40MzdjMS41MDEtMS43MDEgMi40MTMtMy45MzUgMi40MTMtNi4zODJWNjAuMjA0SDcwLjY4NXYyMC4yMDF6Ii8+JiN4YTsJPHBhdGggY2xhc3M9InN0MiIgZD0iTTE5LjQzMSA4MC40MDVWMjkuMzRoMjAuNTc4VjEwLjA0SDkuNzgxYy01LjMzIDAtOS42NSA0LjMyMS05LjY1IDkuNjV2NzAuMzY1Yy4wMDEgMi45MDYgMS4yODYgNS41MTMgMy4zMiA3LjI4MXptNzcuODgtNzcuNDQzQzk1LjU1IDEuMDY2IDkzLjAzNi0uMTIgOTAuMjQ0LS4xMjFINTkuOTUxVjE5LjE4aDIwLjY0M3oiLz4mI3hhOzwvc3ZnPg==;" vertex="1" parent="adFmGDFWW-hnQLzivERC-4">
          <mxGeometry width="30" height="30" relative="1" as="geometry">
            <mxPoint x="15" y="15" as="offset" />
          </mxGeometry>
        </mxCell>
        <mxCell id="adFmGDFWW-hnQLzivERC-14" style="edgeStyle=orthogonalEdgeStyle;rounded=0;orthogonalLoop=1;jettySize=auto;html=1;" edge="1" parent="1" source="adFmGDFWW-hnQLzivERC-6" target="adFmGDFWW-hnQLzivERC-8">
          <mxGeometry relative="1" as="geometry" />
        </mxCell>
        <mxCell id="adFmGDFWW-hnQLzivERC-6" value="" style="strokeColor=#dddddd;shadow=1;strokeWidth=1;rounded=1;absoluteArcSize=1;arcSize=2;" vertex="1" parent="1">
          <mxGeometry x="625" y="345" width="130" height="60" as="geometry" />
        </mxCell>
        <mxCell id="adFmGDFWW-hnQLzivERC-7" value="BigQuery" style="editableCssRules=.*;html=1;fontColor=#999999;shape=image;verticalLabelPosition=middle;verticalAlign=middle;labelPosition=right;align=left;spacingLeft=20;part=1;points=[];imageAspect=0;image=data:image/svg+xml,PHN2ZyB4bWxucz0iaHR0cDovL3d3dy53My5vcmcvMjAwMC9zdmciIHhtbG5zOnY9Imh0dHBzOi8vdmVjdGEuaW8vbmFubyIgd2lkdGg9IjIwLjAwMTA0NTIyNzA1MDc4IiBoZWlnaHQ9IjIwLjAwMTA0NTIyNzA1MDc4IiBmaWxsLXJ1bGU9ImV2ZW5vZGQiIHZpZXdCb3g9IjAgMCAyMC4wMDEwNDUyMjcwNTA3OCAyMC4wMDEwNDUyMjcwNTA3OCI+JiN4YTsJPHN0eWxlIHR5cGU9InRleHQvY3NzIj4mI3hhOwkuc3Qwe2ZpbGw6I2FlY2JmYTt9JiN4YTsJLnN0MXtmaWxsOiM2NjlkZjY7fSYjeGE7CS5zdDJ7ZmlsbDojNDI4NWY0O30mI3hhOwk8L3N0eWxlPiYjeGE7CTxwYXRoIGNsYXNzPSJzdDAiIGQ9Ik00LjczIDguODN2Mi42M2E0LjkxIDQuOTEgMCAwIDAgMS43MSAxLjc0VjguODN6Ii8+JiN4YTsJPHBhdGggY2xhc3M9InN0MSIgZD0iTTcuODkgNi40MXY3LjUzQTcuNjIgNy42MiAwIDAgMCA5IDE0YTggOCAwIDAgMCAxIDBWNi40MXoiLz4mI3hhOwk8cGF0aCBjbGFzcz0ic3QwIiBkPSJNMTEuNjQgOS44NnYzLjI5YTUgNSAwIDAgMCAxLjctMS44MlY5Ljg2eiIvPiYjeGE7CTxwYXRoIGNsYXNzPSJzdDIiIGQ9Ik0xNS43NCAxNC4zMmwtMS40MiAxLjQyYS40Mi40MiAwIDAgMCAwIC42bDMuNTQgMy41NGEuNDIuNDIgMCAwIDAgLjU5IDBsMS40My0xLjQzYS40Mi40MiAwIDAgMCAwLS41OWwtMy41NC0zLjU0YS40Mi40MiAwIDAgMC0uNiAwIi8+JiN4YTsJPHBhdGggY2xhc3M9InN0MSIgZD0iTTkgMGE5IDkgMCAxIDAgMCAxOEE5IDkgMCAxIDAgOSAwbTAgMTUuNjlhNi42OCA2LjY4IDAgMCAxIC4wMDctMTMuMzYgNi42OCA2LjY4IDAgMCAxIDQuNzI3IDExLjQwM0E2LjY4IDYuNjggMCAwIDEgOSAxNS42OSIvPiYjeGE7PC9zdmc+;" vertex="1" parent="adFmGDFWW-hnQLzivERC-6">
          <mxGeometry width="30" height="30" relative="1" as="geometry">
            <mxPoint x="15" y="15" as="offset" />
          </mxGeometry>
        </mxCell>
        <mxCell id="adFmGDFWW-hnQLzivERC-15" style="edgeStyle=orthogonalEdgeStyle;rounded=0;orthogonalLoop=1;jettySize=auto;html=1;" edge="1" parent="1" source="adFmGDFWW-hnQLzivERC-8" target="adFmGDFWW-hnQLzivERC-9">
          <mxGeometry relative="1" as="geometry" />
        </mxCell>
        <mxCell id="adFmGDFWW-hnQLzivERC-8" value="Looker" style="sketch=0;html=1;verticalAlign=top;labelPosition=center;verticalLabelPosition=bottom;align=center;spacingTop=-6;fontSize=11;fontStyle=1;fontColor=#999999;shape=image;aspect=fixed;imageAspect=0;image=data:image/svg+xml,PHN2ZyB4bWxucz0iaHR0cDovL3d3dy53My5vcmcvMjAwMC9zdmciIGlkPSJzdmc4OTgwMSIgdmVyc2lvbj0iMS4xIiB2aWV3Qm94PSIwIDAgMjA4LjA1NjU1IDMzNC42MTMxNiIgaGVpZ2h0PSIzMzQuNjEzMTZtbSIgd2lkdGg9IjIwOC4wNTY1NW1tIj4mI3hhOyAgJiN4YTsgIDxkZWZzIGlkPSJkZWZzODk3OTgiLz4mI3hhOyAgPGcgdHJhbnNmb3JtPSJ0cmFuc2xhdGUoLTQuMjQ2MjUyNCwxNS42NzE5MTEpIiBpZD0ibGF5ZXIxIj4mI3hhOyAgICA8cGF0aCBpZD0icGF0aDkxODAyIiB0cmFuc2Zvcm09InNjYWxlKDAuMjY0NTgzMzMpIiBkPSJtIDQwOS4yMjI2Niw0MTkuMDk5NjEgYyAtMzYuNjA4MTEsMCAtNzIuMDc2NjcsNS4wNzUzIC0xMDUuNzUzOTEsMTQuNTMxMjUgbCA0OS4wMzUxNiwxMjAuMDQxMDIgYyAxOC4yNjE3MiwtMy45Mzg5OSAzNy4yMjE5NiwtNi4wNjgzNiA1Ni43MTg3NSwtNi4wNjgzNiAxNDYuOTM1MTQsMCAyNjQuNjc3NzMsMTE3LjczNDc3IDI2NC42Nzc3MywyNjQuNjY5OTIgMCwxNDYuOTM1MTQgLTExNy43NDI1OSwyNjQuNjY5OTYgLTI2NC42Nzc3MywyNjQuNjY5OTYgLTE0Ni45MzUxNiwwIC0yNjQuNjY5OTEsLTExNy43MzQ4MiAtMjY0LjY2OTkzLC0yNjQuNjY5OTYgMCwtOTkuMTg3NjMgNTMuNjg5ODMsLTE4NS4wMDU5NiAxMzMuNzU1ODYsLTIzMC4zNDc2NiBMIDIyOS42MjY5NSw0NjIuNzUgQyAxMDMuMDI0Nyw1MjguMjI0NzQgMTYuMDQ4ODI3LDY2MC41MDUyMyAxNi4wNDg4MjgsODEyLjI3MzQ0IGMgMi4zZS01LDIxNi4zODM3NiAxNzYuNzkwMDYyLDM5My4xNzM4NiAzOTMuMTczODMyLDM5My4xNzM4NiAyMTYuMzgzNzMsMCAzOTMuMTgxNjQsLTE3Ni43OTAxIDM5My4xODE2NCwtMzkzLjE3Mzg2IDNlLTUsLTIxNi4zODM3OCAtMTc2Ljc5Nzg3LC0zOTMuMTczODMgLTM5My4xODE2NCwtMzkzLjE3MzgzIHoiIHN0eWxlPSJjb2xvcjojMDAwMDAwO29wYWNpdHk6MTtmaWxsOiM1OTg2ZjI7ZmlsbC1vcGFjaXR5OjE7c3Ryb2tlLXdpZHRoOjMuNzc5NTM7c3Ryb2tlLWxpbmVqb2luOnJvdW5kOy1pbmtzY2FwZS1zdHJva2U6bm9uZSIvPiYjeGE7ICAgIDxwYXRoIGQ9Im0gMTg5Ljk0MzM2LDg2LjI1IGMgLTk1LjEzMDMzMSwwIC0xNzMuMTc5Njg4LDc4LjA1NTIyIC0xNzMuMTc5Njg4LDE3My4xODU1NSAtNmUtNiw5NS4xMzAzMyA3OC4wNDkzNTMsMTczLjE3OTY4IDE3My4xNzk2ODgsMTczLjE3OTY4IDkuMDE2MTgsMCAxNy44NzU4LC0wLjcwODMyIDI2LjUzMzIsLTIuMDU4NTkgbCAtMzQuODI4MTIsLTg1LjI2NTYyIGMgLTQ0LjE1NzMsLTQuMDg2NjkgLTc3Ljk1NTA4LC00MC41MDcwNSAtNzcuOTU1MDgsLTg1Ljg1NTQ3IDAsLTQ4LjE1MDM5IDM4LjA5OTYyLC04Ni4yNTU4NiA4Ni4yNSwtODYuMjU1ODYgMTMuMTU5NzcsMCAyNS41NTg4OCwyLjg2MjQ2IDM2LjY0NDUzLDcuOTgyNDIgbCA2NC41NTQ2OSwtNjEuOTE5OTIgQyAyNjIuNjA4MzcsOTguNTMzOTEgMjI3LjYyOTI5LDg2LjI1IDE4OS45NDMzNiw4Ni4yNSBaIG0gMTM4Ljg4ODY3LDcwLjE2MjExIC02My40Mjc3Myw2MC44MzU5NCBjIDYuODc2MzgsMTIuNDI2NzggMTAuNzg5MDYsMjYuNzg4MTUgMTAuNzg5MDYsNDIuMTg3NSAwLDIxLjc2NzEyIC03LjgwNDE1LDQxLjQ2NTQgLTIwLjc4NTE2LDU2LjUzMzIgbCAzNC41MjM0NCw4NC41MTk1MyBjIDQ0LjE3Mzg3LC0zMS40ODc1MSA3My4xOTE0MSwtODMuMDc4OTIgNzMuMTkxNDEsLTE0MS4wNTI3MyAwLC0zOC40ODM1NSAtMTIuNzgyLC03NC4xNjUzMiAtMzQuMjkxMDIsLTEwMy4wMjM0NCB6IiB0cmFuc2Zvcm09InNjYWxlKDAuMjY0NTgzMzMpIiBzdHlsZT0iY29sb3I6IzAwMDAwMDtvcGFjaXR5OjE7ZmlsbDojNmY5OGY0O2ZpbGwtb3BhY2l0eToxO3N0cm9rZS13aWR0aDozLjc3OTUzO3N0cm9rZS1saW5lam9pbjpyb3VuZDstaW5rc2NhcGUtc3Ryb2tlOm5vbmUiIGlkPSJwYXRoOTE3OTgiLz4mI3hhOyAgICA8cGF0aCBpZD0icGF0aDg5OTI4IiB0cmFuc2Zvcm09InNjYWxlKDAuMjY0NTgzMzMpIiBkPSJtIDQwNi4xMzY3MiwtNTkuMjMyNDIyIGMgLTU4LjgxNTQ3LDhlLTYgLTEwNy4xMDM1Miw0OC4yODgwNDUgLTEwNy4xMDM1MiwxMDcuMTAzNTE2IDAsMTguNDk0NDUxIDQuNzgxMDEsMzUuOTQ1MDE3IDEzLjE1NjI1LDUxLjE4MzU5NCBsIDQ0LjMxMjUsLTQyLjUwMzkwNyBjIC0wLjQ3NTY3LC0yLjgyMDc3NSAtMC43NzUzOSwtNS43MDc1NjQgLTAuNzc1MzksLTguNjc5Njg3IDAsLTI4LjE3NjM4IDIyLjIzMzc4LC01MC40MTAxNTI1IDUwLjQxMDE2LC01MC40MTAxNTY1IDI4LjE3NjM4LC00ZS02IDUwLjQxMDE1LDIyLjIzMzc3MDUgNTAuNDEwMTYsNTAuNDEwMTU2NSAwLDI4LjE3NjM4MSAtMjIuMjMzNzgsNTAuNDEyMTEzIC01MC40MTAxNiw1MC40MTIxMDkgLTUuMDY4NjksLTEwZS03IC05LjkzNDE3LC0wLjc0NTYzMSAtMTQuNTIzNDQsLTIuMDg5ODQ0IGwgLTQzLjM2MTMzLDQxLjU5MTgwMSBjIDE2LjczMjIzLDEwLjg0Nzk1IDM2LjYxMTIzLDE3LjE4OTQ1IDU3Ljg4NDc3LDE3LjE4OTQ1IDU4LjgxNTQ5LDEwZS02IDEwNy4xMDM1MSwtNDguMjg4MDQgMTA3LjEwMzUxLC0xMDcuMTAzNTE2IDAsLTU4LjgxNTQ4MyAtNDguMjg4MDIsLTEwNy4xMDM1MjMgLTEwNy4xMDM1MSwtMTA3LjEwMzUxNiB6IiBzdHlsZT0iY29sb3I6IzAwMDAwMDtvcGFjaXR5OjE7ZmlsbDojZDZlM2ZiO2ZpbGwtb3BhY2l0eToxO3N0cm9rZS13aWR0aDozLjc3OTUzO3N0cm9rZS1saW5lam9pbjpyb3VuZDstaW5rc2NhcGUtc3Ryb2tlOm5vbmUiLz4mI3hhOyAgPC9nPiYjeGE7PC9zdmc+;" vertex="1" parent="1">
          <mxGeometry x="677" y="525" width="26" height="42" as="geometry" />
        </mxCell>
        <mxCell id="adFmGDFWW-hnQLzivERC-9" value="" style="sketch=0;outlineConnect=0;fontColor=#232F3E;gradientColor=none;fillColor=#232F3D;strokeColor=none;dashed=0;verticalLabelPosition=bottom;verticalAlign=top;align=center;html=1;fontSize=12;fontStyle=0;aspect=fixed;pointerEvents=1;shape=mxgraph.aws4.users;" vertex="1" parent="1">
          <mxGeometry x="395" y="507" width="78" height="78" as="geometry" />
        </mxCell>
        <mxCell id="adFmGDFWW-hnQLzivERC-13" style="edgeStyle=orthogonalEdgeStyle;rounded=0;orthogonalLoop=1;jettySize=auto;html=1;entryX=0.385;entryY=-0.05;entryDx=0;entryDy=0;entryPerimeter=0;" edge="1" parent="1" source="adFmGDFWW-hnQLzivERC-4" target="adFmGDFWW-hnQLzivERC-6">
          <mxGeometry relative="1" as="geometry" />
        </mxCell>
        <mxCell id="adFmGDFWW-hnQLzivERC-16" value="" style="sketch=0;outlineConnect=0;fontColor=#232F3E;gradientColor=none;fillColor=#8C4FFF;strokeColor=none;dashed=0;verticalLabelPosition=bottom;verticalAlign=top;align=center;html=1;fontSize=12;fontStyle=0;aspect=fixed;pointerEvents=1;shape=mxgraph.aws4.opensearch_dashboards;" vertex="1" parent="1">
          <mxGeometry x="715" y="526" width="78" height="59" as="geometry" />
        </mxCell>
        <mxCell id="adFmGDFWW-hnQLzivERC-17" value="Extract&lt;div&gt;Data&lt;/div&gt;" style="text;html=1;align=center;verticalAlign=middle;whiteSpace=wrap;rounded=0;" vertex="1" parent="1">
          <mxGeometry x="185" y="160" width="60" height="30" as="geometry" />
        </mxCell>
        <mxCell id="adFmGDFWW-hnQLzivERC-18" value="Transform&lt;div&gt;&amp;amp; Load&lt;/div&gt;&lt;div&gt;Data&lt;/div&gt;" style="text;html=1;align=center;verticalAlign=middle;whiteSpace=wrap;rounded=0;" vertex="1" parent="1">
          <mxGeometry x="677" y="235" width="60" height="30" as="geometry" />
        </mxCell>
        <mxCell id="adFmGDFWW-hnQLzivERC-19" value="Airflow" style="rounded=1;whiteSpace=wrap;html=1;" vertex="1" parent="1">
          <mxGeometry x="15.98" y="10" width="724.02" height="90" as="geometry" />
        </mxCell>
        <mxCell id="adFmGDFWW-hnQLzivERC-20" value="Cloud&#xa;Composer" style="sketch=0;html=1;verticalAlign=top;labelPosition=center;verticalLabelPosition=bottom;align=center;spacingTop=-6;fontSize=11;fontStyle=1;fontColor=#999999;shape=image;aspect=fixed;imageAspect=0;image=data:image/svg+xml,PHN2ZyB4bWxucz0iaHR0cDovL3d3dy53My5vcmcvMjAwMC9zdmciIHhtbG5zOnY9Imh0dHBzOi8vdmVjdGEuaW8vbmFubyIgd2lkdGg9IjE0LjY0MDAwMDM0MzMyMjc1NCIgaGVpZ2h0PSIyMCIgdmlld0JveD0iMCAwIDE0LjY0MDAwMDM0MzMyMjc1NCAyMCI+JiN4YTsJPHN0eWxlIHR5cGU9InRleHQvY3NzIj4mI3hhOwkuc3Qwe2ZpbGw6I2FlY2JmYTt9JiN4YTsJLnN0MXtmaWxsOiM0Mjg1ZjQ7fSYjeGE7CTwvc3R5bGU+JiN4YTsJPHBhdGggY2xhc3M9InN0MCIgZD0iTTAgMGgxNC42M3YzLjk0aC01LjN2NS4zM0g1LjM1VjMuOTZIMHoiLz4mI3hhOwk8cGF0aCBjbGFzcz0ic3QxIiBkPSJNMy45NSAxMC42N2g1LjM0VjIwSDUuMzV2LTUuMzVIMFY1LjM3aDMuOTV6TTE0LjY0IDIwSDEwLjdWNS4zNmgzLjk0eiIvPiYjeGE7CTxwYXRoIGNsYXNzPSJzdDAiIGQ9Ik0wIDE2LjA2aDMuOTJWMjBIMHoiLz4mI3hhOzwvc3ZnPg==;" vertex="1" parent="1">
          <mxGeometry x="35" y="19" width="32" height="42" as="geometry" />
        </mxCell>
      </root>
    </mxGraphModel>
  </diagram>
</mxfile>
